<svg width="25" height="25" viewBox="0 0 25 25" fill="none" xmlns="http://www.w3.org/2000/svg">
<path d="M12.5431 8.11581e-05C19.4483 0.0238934 25.0237 5.63788 24.9999 12.543C24.976 19.4482 19.3621 25.0236 12.4569 24.9998C5.55173 24.976 -0.0236754 19.362 0.000136909 12.4568C0.0239492 5.55167 5.63794 -0.0237311 12.5431 8.11581e-05ZM6.64564 14.6975L12.4924 14.7177L12.48 18.2912C12.4782 18.8305 13.1325 19.105 13.5118 18.7232L19.2928 12.9518C19.5305 12.7157 19.5318 12.3377 19.2957 12.1L13.5547 6.28886C13.1729 5.90448 12.5218 6.17441 12.52 6.71372L12.5076 10.2822L6.66094 10.2621C6.32828 10.2609 6.05517 10.5322 6.05402 10.8648L6.0429 14.0906C6.04175 14.4232 6.31298 14.6964 6.64564 14.6975Z" fill="black"/>
</svg>
