<svg width="17" height="18" viewBox="0 0 17 18" fill="none" xmlns="http://www.w3.org/2000/svg">
<path d="M8.5 9C11.1828 9 13.3571 6.98555 13.3571 4.5C13.3571 2.01445 11.1828 0 8.5 0C5.81719 0 3.64286 2.01445 3.64286 4.5C3.64286 6.98555 5.81719 9 8.5 9ZM11.9 10.125H11.2663C10.4239 10.4836 9.48661 10.6875 8.5 10.6875C7.51339 10.6875 6.57991 10.4836 5.73371 10.125H5.1C2.28437 10.125 0 12.2414 0 14.85V16.3125C0 17.2441 0.815848 18 1.82143 18H15.1786C16.1842 18 17 17.2441 17 16.3125V14.85C17 12.2414 14.7156 10.125 11.9 10.125Z" fill="#F9F5F5"/>
</svg>
