<svg width="37" height="34" viewBox="0 0 37 34" fill="none" xmlns="http://www.w3.org/2000/svg">
<path d="M36.9871 16.9668C36.9871 18.1621 36.0236 19.0984 34.9316 19.0984H32.876L32.921 29.7367C32.921 29.916 32.9082 30.0953 32.8889 30.2746V31.3438C32.8889 32.8113 31.7391 34 30.3194 34H29.2917C29.221 34 29.1503 34 29.0797 33.9934C28.9898 34 28.8998 34 28.8099 34H26.7222H25.1806C23.7609 34 22.6111 32.8113 22.6111 31.3438V29.75V25.5C22.6111 24.3246 21.6925 23.375 20.5556 23.375H16.4444C15.3075 23.375 14.3889 24.3246 14.3889 25.5V29.75V31.3438C14.3889 32.8113 13.2391 34 11.8194 34H10.2778H8.22865C8.13229 34 8.03594 33.9934 7.93958 33.9867C7.8625 33.9934 7.78542 34 7.70833 34H6.68055C5.26094 34 4.11111 32.8113 4.11111 31.3438V23.9062C4.11111 23.8465 4.11111 23.7801 4.11753 23.7203V19.0984H2.05556C0.899305 19.0984 0 18.1688 0 16.9668C0 16.3691 0.192708 15.8379 0.642361 15.373L17.1125 0.53125C17.5622 0.0664062 18.076 0 18.5257 0C18.9753 0 19.4892 0.132812 19.8747 0.464844L36.2806 15.373C36.7944 15.8379 37.0514 16.3691 36.9871 16.9668Z" fill="#0A5C03"/>
</svg>
