<svg width="19" height="23" viewBox="0 0 19 23" fill="none" xmlns="http://www.w3.org/2000/svg">
<path d="M18.5451 20.7471L15.4803 15.7912C15.342 15.5675 15.1177 15.4047 14.8557 15.3361L14.1883 15.1614C15.6786 14.0809 16.8033 12.5255 17.2963 10.6423C18.469 6.16245 15.6071 1.53466 10.9024 0.303128C6.19773 -0.928407 1.43548 1.70363 0.262787 6.18351C-0.909903 10.6634 1.95196 15.2912 6.65664 16.5227C8.63433 17.0404 10.6197 16.8769 12.3468 16.1791L12.1804 16.8147C12.1151 17.0642 12.1552 17.3288 12.2935 17.5525L15.3583 22.5084C15.6472 22.9756 16.2696 23.1385 16.7464 22.8717L18.194 22.0716C18.6748 21.8059 18.8299 21.2133 18.5451 20.7471ZM7.47314 13.4036C4.57826 12.6458 2.81586 9.80143 3.53846 7.04098C4.26003 4.28443 7.18695 2.66342 10.0859 3.42228C12.9808 4.18007 14.7432 7.02442 14.0206 9.78487C13.299 12.5414 10.3721 14.1624 7.47314 13.4036Z" fill="#0A5C03"/>
</svg>
