<svg width="19" height="18" viewBox="0 0 19 18" fill="none" xmlns="http://www.w3.org/2000/svg">
<path d="M18.7416 15.5622L15.0415 12.0574C14.8745 11.8992 14.6481 11.8113 14.4106 11.8113H13.8057C14.83 10.5705 15.4386 9.00967 15.4386 7.31179C15.4386 3.27273 11.9835 0 7.71932 0C3.45514 0 0 3.27273 0 7.31179C0 11.3508 3.45514 14.6236 7.71932 14.6236C9.51183 14.6236 11.1596 14.0471 12.4697 13.0768V13.6498C12.4697 13.8748 12.5624 14.0892 12.7294 14.2474L16.4295 17.7522C16.7784 18.0826 17.3425 18.0826 17.6876 17.7522L18.7379 16.7573C19.0867 16.4269 19.0867 15.8926 18.7416 15.5622ZM7.71932 11.8113C5.09549 11.8113 2.96897 9.8006 2.96897 7.31179C2.96897 4.82648 5.09178 2.81223 7.71932 2.81223C10.3431 2.81223 12.4697 4.82297 12.4697 7.31179C12.4697 9.79709 10.3469 11.8113 7.71932 11.8113Z" fill="#D9D9D9"/>
</svg>
