<svg width="21" height="20" viewBox="0 0 21 20" fill="none" xmlns="http://www.w3.org/2000/svg">
<path d="M18.75 0H2.25C1.65326 0 1.08097 0.225765 0.65901 0.627628C0.237053 1.02949 0 1.57454 0 2.14286L0 17.8571C0 18.4255 0.237053 18.9705 0.65901 19.3724C1.08097 19.7742 1.65326 20 2.25 20H8.68359V13.2004H5.73047V10H8.68359V7.56071C8.68359 4.78616 10.418 3.25357 13.0744 3.25357C14.3466 3.25357 15.6769 3.46964 15.6769 3.46964V6.19286H14.2111C12.7669 6.19286 12.3164 7.04643 12.3164 7.92188V10H15.5405L15.0248 13.2004H12.3164V20H18.75C19.3467 20 19.919 19.7742 20.341 19.3724C20.7629 18.9705 21 18.4255 21 17.8571V2.14286C21 1.57454 20.7629 1.02949 20.341 0.627628C19.919 0.225765 19.3467 0 18.75 0Z" fill="#0066FF"/>
</svg>
