<svg width="25" height="23" viewBox="0 0 25 23" fill="none" xmlns="http://www.w3.org/2000/svg">
<path d="M18.3811 4.27308e-05C14.7352 0.0130636 11.8056 3.01654 11.8056 6.66237V9.72227H2.08333C0.93316 9.72227 0 10.6554 0 11.8056V20.1389C0 21.2891 0.93316 22.2223 2.08333 22.2223H17.3611C18.5113 22.2223 19.4444 21.2891 19.4444 20.1389V11.8056C19.4444 10.6554 18.5113 9.72227 17.3611 9.72227H15.2778V6.63633C15.2778 4.91758 16.6536 3.48963 18.3724 3.47226C20.1085 3.4549 21.5278 4.86549 21.5278 6.59727V10.0695C21.5278 10.6467 21.9922 11.1112 22.5694 11.1112H23.9583C24.5356 11.1112 25 10.6467 25 10.0695V6.59727C25 2.95143 22.0269 -0.0129781 18.3811 4.27308e-05Z" fill="#31F920"/>
</svg>
