<svg width="16" height="18" viewBox="0 0 16 18" fill="none" xmlns="http://www.w3.org/2000/svg">
<path d="M14.2857 9.00002H5.42857V5.37541C5.42857 3.98323 6.56071 2.82659 7.975 2.81253C9.40357 2.79847 10.5714 3.94104 10.5714 5.34377V5.90627C10.5714 6.37385 10.9536 6.75002 11.4286 6.75002H12.5714C13.0464 6.75002 13.4286 6.37385 13.4286 5.90627V5.34377C13.4286 2.39066 10.9821 -0.0105122 7.98214 3.46119e-05C4.98214 0.0105815 2.57143 2.44339 2.57143 5.39651V9.00002H1.71429C0.767857 9.00002 0 9.75587 0 10.6875V16.3125C0 17.2441 0.767857 18 1.71429 18H14.2857C15.2321 18 16 17.2441 16 16.3125V10.6875C16 9.75587 15.2321 9.00002 14.2857 9.00002ZM9.42857 14.3438C9.42857 15.1207 8.78929 15.75 8 15.75C7.21071 15.75 6.57143 15.1207 6.57143 14.3438V12.6563C6.57143 11.8793 7.21071 11.25 8 11.25C8.78929 11.25 9.42857 11.8793 9.42857 12.6563V14.3438Z" fill="#FDF8F8"/>
</svg>
