<svg width="25" height="25" viewBox="0 0 25 25" fill="none" xmlns="http://www.w3.org/2000/svg">
<path d="M11.1008 19.0787L11.1018 19.0797C11.8121 19.79 13.0161 19.2824 13.0161 18.2863V15.2339H18.3468C18.9645 15.2339 19.4677 14.7306 19.4677 14.1129V10.8871C19.4677 10.2694 18.9645 9.76613 18.3468 9.76613H13.0161V6.70867C13.0161 5.71536 11.8074 5.20151 11.1002 5.91691C11.0999 5.91718 11.0996 5.91744 11.0994 5.91771L5.34069 11.7066C5.3405 11.7068 5.34031 11.707 5.34013 11.7072C4.90242 12.1455 4.90242 12.8495 5.34013 13.2878C5.34031 13.288 5.3405 13.2882 5.34069 13.2883L11.1008 19.0787ZM12.5 24.4839C5.87981 24.4839 0.516129 19.1202 0.516129 12.5C0.516129 5.87981 5.87981 0.516129 12.5 0.516129C19.1202 0.516129 24.4839 5.87981 24.4839 12.5C24.4839 19.1202 19.1202 24.4839 12.5 24.4839Z" fill="#04FF2F" stroke="black"/>
</svg>
