<svg width="52" height="25" viewBox="0 0 52 25" fill="none" xmlns="http://www.w3.org/2000/svg">
<path d="M46.8 8.28761e-08H16.6777C15.9947 -0.000109091 15.3183 0.107644 14.6874 0.317101C14.0564 0.526557 13.4831 0.833609 13.0003 1.2207L0.761713 11.0267C-0.253904 11.8405 -0.253904 13.1595 0.761713 13.9727L13.0003 23.7793C13.9753 24.5605 15.298 25 16.6768 25H46.8C49.6722 25 52 23.1348 52 20.8333V4.16667C52 1.86523 49.6722 8.28761e-08 46.8 8.28761e-08ZM39.919 16.5404C40.4268 16.9473 40.4268 17.6068 39.919 18.0137L38.0812 19.4863C37.5734 19.8932 36.7503 19.8932 36.2425 19.4863L31.2002 15.446L26.1578 19.4863C25.65 19.8932 24.827 19.8932 24.3192 19.4863L22.4813 18.0137C21.9735 17.6068 21.9735 16.9473 22.4813 16.5404L27.5236 12.5L22.4813 8.45963C21.9735 8.05273 21.9735 7.39323 22.4813 6.98633L24.3192 5.51367C24.827 5.10677 25.65 5.10677 26.1578 5.51367L31.2002 9.55404L36.2425 5.51367C36.7503 5.10677 37.5734 5.10677 38.0812 5.51367L39.919 6.98633C40.4268 7.39323 40.4268 8.05273 39.919 8.45963L34.8767 12.5L39.919 16.5404Z" fill="black"/>
</svg>
